<?xml version="1.0" encoding="UTF-8"?>
<svg version="1.1" xmlns="http://www.w3.org/2000/svg" width="842" height="842">
<path d="M0 0 C14.32704431 0.00451445 28.65408051 0.00365519 42.9811247 -0.00090924 C59.89343163 -0.00629527 76.80573382 -0.00835252 93.71804148 -0.00529698 C95.52755036 -0.0049786 97.33705924 -0.00466423 99.14656812 -0.00435391 C100.48000358 -0.0041225 100.48000358 -0.0041225 101.84037714 -0.00388641 C107.98923055 -0.00303674 114.13808079 -0.00446876 120.28693372 -0.00683346 C279.952515 -0.06276552 279.952515 -0.06276552 329.16471845 42.12946185 C330.4486247 43.21034076 330.4486247 43.21034076 331.75846845 44.3130556 C337.99377832 49.71121739 343.13016287 55.61206539 348.16471845 62.12946185 C348.90592939 63.05500873 349.64714032 63.9805556 350.4108122 64.93414935 C360.90585141 78.35761372 368.44672809 93.84916255 375.71372968 109.19661579 C377.10562511 112.11001476 377.10562511 112.11001476 378.70899945 114.70088825 C384.67897767 125.46328762 384.03252711 136.20127313 384.0045622 148.20758685 C384.02095733 150.67954934 384.04002831 153.15149518 384.06143171 155.62341937 C384.10433949 161.26229858 384.12806241 166.90083851 384.13853437 172.53986225 C384.1573319 182.04029323 384.22478823 191.54015612 384.29612666 201.04031703 C384.47938567 225.64375249 384.5934614 250.24739599 384.69734937 274.85127506 C384.7222937 280.75278495 384.74821544 286.65429008 384.77444369 292.55579439 C385.08538427 362.58833557 385.26993849 432.62069912 385.28683186 502.65394351 C385.28845353 509.20345675 385.29137671 515.75296743 385.29554218 522.30247954 C385.36438505 631.53736949 385.36438505 631.53736949 383.82048017 674.5593935 C383.79419569 675.29284173 383.76791122 676.02628997 383.74083024 676.78196391 C382.94127938 697.52196249 378.89277425 717.23975654 370.16471845 736.12946185 C369.87371259 736.76754779 369.58270673 737.40563373 369.28288251 738.0630556 C362.09331282 753.67469264 352.75131071 767.45250776 341.16471845 780.12946185 C340.70371747 780.63574115 340.2427165 781.14202045 339.76774579 781.66364154 C334.12559585 787.77482587 328.09173896 793.21120675 321.47721845 798.25446185 C320.90334394 798.69669086 320.32946943 799.13891986 319.73820478 799.59454975 C315.1382025 802.99146509 310.27312398 805.8662035 305.33609372 808.73535594 C300.9520732 811.28313989 296.58102558 813.82969339 292.32893497 816.59374127 C265.60794335 833.91954501 240.20471828 834.74864253 208.99584371 834.4151461 C201.95898398 834.34378396 194.92353389 834.38049299 187.88656007 834.41841104 C174.10966716 834.48934607 160.33444109 834.4599375 146.55764287 834.3867414 C134.50808592 834.32316768 122.45909338 834.29633339 110.40937024 834.3045145 C109.2038669 834.30527077 109.2038669 834.30527077 107.97400994 834.30604233 C104.71062966 834.30815625 101.4472496 834.31046045 98.18386965 834.31303578 C67.67231615 834.33674128 37.1617589 834.26090923 6.65049025 834.13587641 C-20.39677553 834.02555993 -47.44308842 833.99082236 -74.49055499 834.02350482 C-76.22932033 834.02558344 -77.96808568 834.02766003 -79.70685104 834.02973457 C-80.56650964 834.03076054 -81.42616824 834.03178651 -82.3118771 834.03284357 C-86.64022867 834.03796565 -90.96858041 834.0429083 -95.2969324 834.04765758 C-96.57810767 834.0490713 -96.57810767 834.0490713 -97.88516526 834.05051359 C-120.56550675 834.07449525 -143.24575768 834.04154771 -165.92604393 833.99058983 C-168.36840922 833.98514821 -170.81077452 833.97971433 -173.25313987 833.97429844 C-174.87295815 833.97069184 -176.49277632 833.96704012 -178.11259439 833.96334299 C-189.36102437 833.93810852 -200.60927431 833.9345054 -211.85772343 833.94597596 C-226.35118466 833.96068399 -240.84368231 833.93579698 -255.33688167 833.84271593 C-262.31548712 833.79891847 -269.29288762 833.77305533 -276.27160662 833.80217609 C-282.6749326 833.82685041 -289.0755391 833.79505459 -295.47845492 833.72041963 C-297.77920771 833.70302511 -300.08022171 833.70519407 -302.38090351 833.73027809 C-319.10529466 833.89589858 -330.81308412 829.91152046 -345.2778686 821.57255004 C-348.96336653 819.49290994 -352.76271647 817.68934904 -356.58528155 815.87946185 C-387.45180823 800.62318721 -414.57925037 773.60091692 -430.20619315 742.99871883 C-432.03817232 739.47946152 -434.08951579 736.21411577 -436.28296584 732.90990886 C-450.43548013 709.95194049 -448.89109477 685.17091701 -448.74891825 658.99472518 C-448.71372584 651.97920131 -448.76148175 644.96476125 -448.81011288 637.94940428 C-448.90260745 624.2068323 -448.91547935 610.46508022 -448.89221579 596.72226698 C-448.87184804 584.68884298 -448.87572743 572.65574269 -448.90339488 560.62233219 C-448.90702496 559.00049223 -448.91065008 557.37865227 -448.91427026 555.7568123 C-448.91975906 553.31200749 -448.92526731 550.86720274 -448.93083958 548.42239812 C-448.98200174 525.72687318 -449.0054122 503.03145476 -448.96955222 480.33589229 C-448.96820715 479.48249988 -448.96686208 478.62910747 -448.96547625 477.74985469 C-448.95439253 470.82231139 -448.94255622 463.89476936 -448.93066238 456.96722741 C-448.88493806 429.97438744 -448.92619463 402.98293763 -449.03767413 375.9903017 C-449.16311331 345.57158388 -449.22468922 315.15370596 -449.19234765 284.73471925 C-449.18908875 281.48139604 -449.18602956 278.22807269 -449.18308848 274.97474918 C-449.18231851 274.17386731 -449.18154855 273.37298543 -449.18075525 272.54783441 C-449.17044354 260.53854937 -449.20859135 248.53006314 -449.2720663 236.52096042 C-449.34428699 222.83567918 -449.34802801 209.15223142 -449.26499248 195.46697478 C-449.22447681 188.50198587 -449.21249884 181.5402067 -449.2886011 174.57542667 C-449.61454868 141.61156934 -446.86185751 116.18197702 -428.98821937 87.95452935 C-427.86610041 86.17824722 -426.76961523 84.38878079 -425.68126231 82.59165177 C-418.7718266 71.22635682 -410.89252993 60.86428537 -401.83528155 51.12946185 C-401.05282061 50.26578998 -400.27035968 49.4021181 -399.4641878 48.51227435 C-376.22933663 23.98442135 -341.72694961 5.37251876 -307.83528155 3.12946185 C-307.15530108 3.07983295 -306.47532061 3.03020404 -305.77473468 2.97907123 C-273.33199638 0.69437135 -240.57992584 0.90787924 -208.06965655 0.57477435 C-207.08200777 0.56441229 -206.09435899 0.55405022 -205.07678145 0.54337415 C-136.72104645 -0.16917927 -68.3585103 -0.02196711 0 0 Z " fill="#000000" transform="translate(452.83528155088425,3.870538145303726)"/>
<path d="M0 0 C1.06242668 0.86857927 2.12492632 1.73706931 3.1875 2.60546875 C15.85757229 13.06099562 28.69609678 24.29727744 39.375 36.8125 C41.22475411 38.96576143 43.08444653 41.09065343 45.01953125 43.16796875 C56.28945274 55.29074916 65.57011589 68.79660521 74 83 C74.38784668 83.64404785 74.77569336 84.2880957 75.17529297 84.95166016 C104.04026322 133.10835475 119.46352819 196.00881511 106.3359375 251.23046875 C94.94428476 296.69466309 76.38764463 343.76471461 46 380 C45.12048979 381.07111895 44.24158454 382.14273492 43.36328125 383.21484375 C30.78174925 398.44463368 17.08579079 413.22682598 2 426 C1.08089844 426.80824219 0.16179687 427.61648438 -0.78515625 428.44921875 C-27.99181249 452.21833557 -60.06822876 468.14432089 -94 480 C-95.21945312 480.43054688 -96.43890625 480.86109375 -97.6953125 481.3046875 C-154.41049384 500.0163458 -224.17719098 494.37814351 -277.23828125 467.88232422 C-292.65181728 459.91138454 -306.14509291 449.58513734 -319 438 C-319.85013672 437.23816406 -320.70027344 436.47632813 -321.57617188 435.69140625 C-332.0511071 426.21145891 -341.97905648 416.17201414 -351.95422363 406.17272949 C-353.85710669 404.26723056 -355.76370527 402.3654705 -357.67027855 400.46366501 C-359.97794337 398.16051158 -362.28176439 395.85352087 -364.5859375 393.546875 C-365.42772552 392.70711121 -366.26951355 391.86734741 -367.1368103 391.00213623 C-371.43315032 386.68883348 -375.58617657 382.30946689 -379.55023193 377.68788147 C-381.60057415 375.3007861 -383.73989423 372.99873402 -385.875 370.6875 C-416.88569884 336.58976327 -435.26426522 299.14506148 -438.125 252.75 C-438.16702545 252.07481323 -438.2090509 251.39962646 -438.25234985 250.70397949 C-439.37557471 232.1454183 -439.25028036 213.5828568 -439 195 C-438.99033203 194.20837463 -438.98066406 193.41674927 -438.97070312 192.60113525 C-438.07781217 120.78107952 -438.07781217 120.78107952 -425 96 C-424.56042969 95.11441406 -424.12085938 94.22882813 -423.66796875 93.31640625 C-411.51558524 69.71466967 -390.3948335 50.21667884 -371.80151367 31.67114258 C-369.30336032 29.17838005 -366.81063802 26.68027525 -364.31835938 24.18164062 C-362.70865409 22.57259572 -361.09863885 20.96386082 -359.48828125 19.35546875 C-358.7547493 18.61991257 -358.02121735 17.88435638 -357.26545715 17.12651062 C-353.22125282 13.10039728 -349.08806062 9.24003159 -344.75752258 5.52284241 C-342.57621164 3.63279967 -340.48249795 1.66036188 -338.38647461 -0.32299805 C-331.79323149 -6.54776077 -324.88971843 -12.23485302 -317.67578125 -17.72265625 C-316.07817903 -18.94040899 -314.49189624 -20.17296959 -312.90625 -21.40625 C-305.89533606 -26.79358387 -298.65010993 -31.57341584 -291 -36 C-290.08686035 -36.54140625 -290.08686035 -36.54140625 -289.15527344 -37.09375 C-217.86308993 -79.01748425 -95.83768251 -60.35655553 0 0 Z " fill="#84C4B9" transform="translate(585,204)"/>
<path d="M0 0 C2.67994282 14.51348968 4.8850138 29.09138953 7.0625 43.6875 C7.34722168 45.58799606 7.34722168 45.58799606 7.63769531 47.52688599 C11.3744645 72.48031639 14.95686615 97.45556257 18.49107456 122.43841743 C18.90604805 125.37105262 19.32193159 128.30355847 19.73784065 131.2360611 C20.02366472 133.2550142 20.30783767 135.27419491 20.59190369 137.293396 C20.76331375 138.50295959 20.93472382 139.71252319 21.11132812 140.95874023 C21.33375183 142.53594093 21.33375183 142.53594093 21.56066895 144.14500427 C21.83774493 145.94558434 22.16886853 147.73942609 22.57447815 149.51547241 C24.31196783 159.66028883 21.2648388 171.16721558 19.84765625 181.30078125 C19.62945257 182.88004618 19.41147154 184.45934188 19.19369507 186.03866577 C18.61030749 190.25818124 18.02093632 194.47683789 17.42939377 198.69521713 C17.06127538 201.32123595 16.69437585 203.94742289 16.32766724 206.57363892 C12.96813801 230.60717151 9.48362043 254.61991043 5.76090622 278.60000229 C5.43799675 280.6842936 5.11744545 282.76893634 4.7973938 284.85366821 C4.20611315 288.69947126 3.60231757 292.54324102 2.99609375 296.38671875 C2.82258392 297.51524261 2.6490741 298.64376648 2.4703064 299.80648804 C2.30535675 300.83545197 2.1404071 301.86441589 1.97045898 302.92456055 C1.83042953 303.81435104 1.69040009 304.70414154 1.54612732 305.62089539 C0.99910142 308.00391448 0.18774796 309.87221767 -1 312 C-13.6884518 311.84440026 -26.0456286 310.606943 -38.5625 308.625 C-39.24966095 308.51999176 -39.9368219 308.41498352 -40.64480591 308.30679321 C-42.62078875 308.00178999 -44.59368867 307.67701682 -46.56640625 307.3515625 C-47.71052979 307.16416504 -48.85465332 306.97676758 -50.03344727 306.78369141 C-55.01165374 305.46856979 -55.01165374 305.46856979 -57 303 C-57.60454188 299.77584529 -57.53090334 296.61042395 -57.45703125 293.33984375 C-57.4387603 291.87791847 -57.4387603 291.87791847 -57.42012024 290.38645935 C-57.145223 278.98347211 -55.44984284 267.81302077 -53.6875 256.5625 C-53.21767624 253.46585673 -52.75245013 250.36854391 -52.28730774 247.27119446 C-51.98025001 245.22909716 -51.67150178 243.18725329 -51.36100769 241.14567566 C-50.26654201 233.91676962 -49.25897725 226.67942535 -48.3125 219.4296875 C-48.12786446 218.01998436 -48.12786446 218.01998436 -47.9394989 216.58180237 C-47.10133044 210.06610514 -46.40902451 203.55849653 -46 197 C-66.31714056 209.14462784 -84.77759207 224.58326211 -103.5 239 C-105.6661485 240.66734587 -107.83271557 242.3341321 -110 244 C-110.75716309 244.58217285 -111.51432617 245.1643457 -112.29443359 245.76416016 C-123.70923755 254.53071197 -135.20607052 263.14977227 -146.92626953 271.50390625 C-148.99955264 272.99967725 -151.0468485 274.52568559 -153.08984375 276.0625 C-154.05096069 276.77623779 -154.05096069 276.77623779 -155.03149414 277.50439453 C-156.22434317 278.39125116 -157.41028432 279.28750849 -158.58764648 280.19482422 C-162.41013886 283.00966985 -162.41013886 283.00966985 -165.14453125 282.96484375 C-174.60814191 278.04376621 -181.11206584 266.38916332 -187.24609375 258.06640625 C-190.56496863 253.56385886 -193.96750575 249.13682512 -197.4375 244.75 C-197.90397949 244.16001221 -198.37045898 243.57002441 -198.85107422 242.9621582 C-199.89879744 241.63991619 -200.94905843 240.31968546 -202 239 C-194.26638289 231.0868525 -185.41176111 224.49624705 -176.63671875 217.7890625 C-172.48744426 214.61466609 -168.36991124 211.39985063 -164.25 208.1875 C-156.1769012 201.89825146 -148.05512029 195.67473486 -139.91943359 189.46679688 C-137.107635 187.3180706 -134.30365845 185.15933942 -131.5 183 C-119.71820308 173.93140788 -107.91913491 164.88767863 -96 156 C-99.30057123 152.57386356 -102.6634515 149.62140158 -106.5 146.8125 C-107.55832031 146.03003906 -108.61664063 145.24757813 -109.70703125 144.44140625 C-110.25311035 144.03809082 -110.79918945 143.63477539 -111.36181641 143.21923828 C-113.99405874 141.26015956 -116.58977454 139.25451839 -119.1875 137.25 C-124.28159489 133.32007022 -129.38771858 129.4062431 -134.5 125.5 C-135.95705998 124.38545423 -137.41409161 123.27087138 -138.87109375 122.15625 C-141.38148497 120.23609785 -143.89423916 118.31915399 -146.41015625 116.40625 C-154.46418439 110.25844165 -162.33678013 103.90746686 -170.17529297 97.48828125 C-171.77770072 96.18131341 -173.39003018 94.88652979 -175.00390625 93.59375 C-180.18076623 89.43417691 -185.16948912 85.11222598 -190.0625 80.625 C-190.90397583 79.85627563 -190.90397583 79.85627563 -191.76245117 79.07202148 C-194.19079684 76.81945318 -196.15343025 74.76985463 -198 72 C-197.40442769 59.86734128 -184.82352705 47.72944232 -177.39404297 38.71582031 C-174.75146204 35.46327062 -172.23833142 32.1062036 -169.71875 28.7578125 C-168 27 -168 27 -166.16015625 25.98828125 C-162.72118471 26.00693752 -160.55679009 28.04800866 -157.9375 30.0625 C-157.33389648 30.51077148 -156.73029297 30.95904297 -156.10839844 31.42089844 C-154.77871159 32.40929676 -153.45287992 33.40289657 -152.13037109 34.40087891 C-149.9306942 36.05202303 -147.71266099 37.67528112 -145.48828125 39.29296875 C-133.71981376 47.86577307 -122.22235506 56.76107741 -110.77050781 65.75 C-100.83610989 73.54100266 -90.79764863 81.15714077 -80.609375 88.61328125 C-76.25030346 91.80598197 -71.93541367 95.05459272 -67.625 98.3125 C-56.74964393 106.84996055 -56.74964393 106.84996055 -45 114 C-47.85128884 88.93138329 -51.25384906 63.91882783 -55.09960938 38.9831543 C-56.24565045 31.54170125 -57.19270099 24.28482022 -57.25 16.75 C-57.2809375 15.70972656 -57.2809375 15.70972656 -57.3125 14.6484375 C-57.33537162 11.66369061 -57.15811281 9.34201708 -55.8984375 6.6171875 C-51.52938292 2.89540027 -44.55875556 2.84647869 -39 2 C-38.33629395 1.89413574 -37.67258789 1.78827148 -36.98876953 1.67919922 C-24.67474274 -0.23227702 -12.43694047 -0.22558982 0 0 Z " fill="#000000" transform="translate(494,263)"/>
</svg>
