<?xml version="1.0" standalone="no"?>
<!DOCTYPE svg PUBLIC "-//W3C//DTD SVG 20010904//EN"
 "http://www.w3.org/TR/2001/REC-SVG-20010904/DTD/svg10.dtd">
<svg version="1.0" xmlns="http://www.w3.org/2000/svg"
 width="202.000000pt" height="202.000000pt" viewBox="0 0 202.000000 202.000000"
 preserveAspectRatio="xMidYMid meet">

<g transform="translate(0.000000,202.000000) scale(0.100000,-0.100000)"
fill="#000000" stroke="none">
<path d="M309 1996 c-118 -33 -208 -110 -262 -224 l-32 -67 0 -695 0 -695 32
-67 c41 -86 109 -155 198 -199 l70 -34 695 0 696 0 76 38 c119 58 193 155 218
282 8 43 10 250 8 715 l-3 655 -31 66 c-55 116 -131 181 -255 220 -57 18 -101
19 -712 18 -494 -1 -663 -4 -698 -13z m871 -351 c120 -37 201 -86 290 -175 95
-95 143 -177 179 -310 30 -107 27 -183 -9 -293 -49 -144 -95 -222 -185 -313
-87 -88 -164 -136 -280 -175 -99 -34 -260 -34 -360 -1 -102 34 -149 68 -280
203 -168 174 -190 233 -183 506 4 199 15 224 176 383 123 122 196 170 292 190
70 14 296 5 360 -15z"/>
<path d="M1080 1381 c-40 -7 -39 4 -16 -155 9 -60 15 -110 13 -112 -1 -2 -67
47 -146 107 -78 61 -144 109 -145 107 -1 -1 -19 -24 -39 -49 -20 -25 -37 -52
-37 -60 0 -8 56 -56 124 -108 l124 -95 -129 -99 -128 -99 41 -54 c22 -30 44
-54 48 -54 4 0 69 48 145 106 75 58 138 104 140 102 3 -2 -4 -60 -15 -128 -13
-86 -15 -127 -8 -131 11 -7 129 -22 132 -17 2 2 15 86 30 187 l26 185 -27 188
-28 188 -35 -1 c-19 -1 -51 -4 -70 -8z"/>
</g>
</svg>
